<svg width="19" height="35" viewBox="0 0 19 35" fill="none" xmlns="http://www.w3.org/2000/svg">
<path id="Vector" d="M10.3859 0.544434C6.45795 0.544434 4.63049 2.74269 4.63049 5.82025V13.2526H1.85313C0.826207 13.2526 0 14.01 0 14.9513V18.5273C0 19.4687 0.826207 20.2261 1.85196 20.2261H4.63049V32.8273C4.63049 33.7686 5.4567 34.5249 6.48362 34.5249H10.3859C11.4128 34.5249 12.2379 33.7675 12.2379 32.8273V20.2261H15.8041C16.831 20.2261 17.4379 19.4473 17.6561 18.5273L18.5056 14.9513C18.7238 14.0314 17.6794 13.2526 16.6525 13.2526H12.2391V10.9463C12.2391 8.4036 12.8634 7.51788 15.5649 7.51788H16.3549C17.3818 7.51788 18.208 6.76053 18.208 5.82025V2.24314C18.208 1.30179 17.3818 0.544434 16.3549 0.544434H10.3859Z" fill="#211F20"/>
</svg>
