<svg width="98" height="17" viewBox="0 0 98 17" fill="none" xmlns="http://www.w3.org/2000/svg">
<g id="Group 2">
<path id="Vector" d="M17.9861 6.8073C18.0761 6.36185 17.7163 5.82731 17.2667 5.82731L12.1406 5.11459L9.80244 0.481934C9.71251 0.303755 9.62258 0.214665 9.44272 0.125575C8.99306 -0.141694 8.45348 0.0364858 8.18369 0.481934L5.93542 5.11459L0.809376 5.82731C0.539584 5.82731 0.359723 5.9164 0.269792 6.09458C-0.0899306 6.45094 -0.0899306 6.98548 0.269792 7.34183L3.95695 10.9054L3.05764 15.9835C3.05764 16.1617 3.05764 16.3399 3.14757 16.5181C3.41736 16.9635 3.95695 17.1417 4.4066 16.8744L8.99306 14.469L13.5795 16.8744C13.6695 16.9635 13.8493 16.9635 14.0292 16.9635C14.1191 16.9635 14.1191 16.9635 14.209 16.9635C14.6587 16.8744 15.0184 16.429 14.9285 15.8944L14.0292 10.8163L17.7163 7.25275C17.8962 7.16366 17.9861 6.98548 17.9861 6.8073Z" fill="#F0E8DD"/>
<path id="Vector_2" d="M37.9861 6.8073C38.0761 6.36185 37.7163 5.82731 37.2667 5.82731L32.1406 5.11459L29.8024 0.481934C29.7125 0.303755 29.6226 0.214665 29.4427 0.125575C28.9931 -0.141694 28.4535 0.0364858 28.1837 0.481934L25.9354 5.11459L20.8094 5.82731C20.5396 5.82731 20.3597 5.9164 20.2698 6.09458C19.9101 6.45094 19.9101 6.98548 20.2698 7.34183L23.9569 10.9054L23.0576 15.9835C23.0576 16.1617 23.0576 16.3399 23.1476 16.5181C23.4174 16.9635 23.9569 17.1417 24.4066 16.8744L28.9931 14.469L33.5795 16.8744C33.6695 16.9635 33.8493 16.9635 34.0292 16.9635C34.1191 16.9635 34.1191 16.9635 34.209 16.9635C34.6587 16.8744 35.0184 16.429 34.9285 15.8944L34.0292 10.8163L37.7163 7.25275C37.8962 7.16366 37.9861 6.98548 37.9861 6.8073Z" fill="#F0E8DD"/>
<path id="Vector_3" d="M57.9861 6.8073C58.0761 6.36185 57.7163 5.82731 57.2667 5.82731L52.1406 5.11459L49.8024 0.481934C49.7125 0.303755 49.6226 0.214665 49.4427 0.125575C48.9931 -0.141694 48.4535 0.0364858 48.1837 0.481934L45.9354 5.11459L40.8094 5.82731C40.5396 5.82731 40.3597 5.9164 40.2698 6.09458C39.9101 6.45094 39.9101 6.98548 40.2698 7.34183L43.9569 10.9054L43.0576 15.9835C43.0576 16.1617 43.0576 16.3399 43.1476 16.5181C43.4174 16.9635 43.9569 17.1417 44.4066 16.8744L48.9931 14.469L53.5795 16.8744C53.6695 16.9635 53.8493 16.9635 54.0292 16.9635C54.1191 16.9635 54.1191 16.9635 54.209 16.9635C54.6587 16.8744 55.0184 16.429 54.9285 15.8944L54.0292 10.8163L57.7163 7.25275C57.8962 7.16366 57.9861 6.98548 57.9861 6.8073Z" fill="#F0E8DD"/>
<path id="Vector_4" d="M77.9861 6.8073C78.0761 6.36185 77.7163 5.82731 77.2667 5.82731L72.1406 5.11459L69.8024 0.481934C69.7125 0.303755 69.6226 0.214665 69.4427 0.125575C68.9931 -0.141694 68.4535 0.0364858 68.1837 0.481934L65.9354 5.11459L60.8094 5.82731C60.5396 5.82731 60.3597 5.9164 60.2698 6.09458C59.9101 6.45094 59.9101 6.98548 60.2698 7.34183L63.9569 10.9054L63.0576 15.9835C63.0576 16.1617 63.0576 16.3399 63.1476 16.5181C63.4174 16.9635 63.9569 17.1417 64.4066 16.8744L68.9931 14.469L73.5795 16.8744C73.6695 16.9635 73.8493 16.9635 74.0292 16.9635C74.1191 16.9635 74.1191 16.9635 74.209 16.9635C74.6587 16.8744 75.0184 16.429 74.9285 15.8944L74.0292 10.8163L77.7163 7.25275C77.8962 7.16366 77.9861 6.98548 77.9861 6.8073Z" fill="#F0E8DD"/>
<path id="Vector_5" d="M97.9861 6.8073C98.0761 6.36185 97.7163 5.82731 97.2667 5.82731L92.1406 5.11459L89.8024 0.481934C89.7125 0.303755 89.6226 0.214665 89.4427 0.125575C88.9931 -0.141694 88.4535 0.0364858 88.1837 0.481934L85.9354 5.11459L80.8094 5.82731C80.5396 5.82731 80.3597 5.9164 80.2698 6.09458C79.9101 6.45094 79.9101 6.98548 80.2698 7.34183L83.9569 10.9054L83.0576 15.9835C83.0576 16.1617 83.0576 16.3399 83.1476 16.5181C83.4174 16.9635 83.9569 17.1417 84.4066 16.8744L88.9931 14.469L93.5795 16.8744C93.6695 16.9635 93.8493 16.9635 94.0292 16.9635C94.1191 16.9635 94.1191 16.9635 94.209 16.9635C94.6587 16.8744 95.0184 16.429 94.9285 15.8944L94.0292 10.8163L97.7163 7.25275C97.8962 7.16366 97.9861 6.98548 97.9861 6.8073Z" fill="#F0E8DD"/>
</g>
</svg>
