<svg width="36" height="36" viewBox="0 0 36 36" fill="none" xmlns="http://www.w3.org/2000/svg">
<path id="Subtract" fill-rule="evenodd" clip-rule="evenodd" d="M1.64163 1.02998C1.43285 1.22902 1.22884 1.43303 1.0298 1.64181C0.383538 2.42767 6.10352e-05 3.44203 6.10352e-05 4.56418V30.882C6.10352e-05 32.0031 0.382778 33.0167 1.02788 33.8024C1.22866 34.0131 1.4345 34.2189 1.6452 34.4196C2.43056 35.0643 3.44354 35.4468 4.564 35.4468H30.8819C32.0012 35.4468 33.0135 35.065 33.7987 34.4215C34.0112 34.219 34.2189 34.0114 34.4213 33.7989C35.0648 33.0137 35.4466 32.0014 35.4466 30.882V4.56418C35.4466 3.44372 35.0641 2.43073 34.4194 1.64536C34.2187 1.43467 34.0129 1.22885 33.8022 1.02808C33.0165 0.382969 32.0029 0.000244141 30.8819 0.000244141H4.564C3.44185 0.000244141 2.42749 0.383721 1.64163 1.02998ZM29.3391 4.59726C29.691 4.31902 30.1273 4.16924 30.5758 4.17269C30.8704 4.17502 31.1606 4.24339 31.4252 4.37276C31.6898 4.50213 31.922 4.68921 32.1048 4.92022C32.4287 5.32985 32.5767 5.85139 32.5161 6.37011C32.4555 6.88883 32.1914 7.36224 31.7818 7.68623C31.3722 8.01017 30.8506 8.15813 30.3319 8.09757C29.8132 8.037 29.3398 7.77287 29.0158 7.36327C28.6919 6.95359 28.544 6.43202 28.6046 5.9133C28.6653 5.39458 28.9295 4.92119 29.3391 4.59726ZM5.50924 17.9212C5.50924 11.2533 10.9562 5.8056 17.6241 5.8056C24.292 5.8056 29.7389 11.2533 29.7389 17.9212C29.7389 24.5891 24.292 30.036 17.6241 30.036C10.9562 30.036 5.50924 24.5891 5.50924 17.9212ZM20.7578 10.3576C19.764 9.94787 18.699 9.73882 17.6241 9.74252C16.5491 9.73882 15.4841 9.94787 14.4903 10.3576C13.4965 10.7674 12.5937 11.3697 11.8337 12.13C11.0738 12.8902 10.4718 13.7933 10.0624 14.7872C9.65305 15.7812 9.44442 16.8463 9.44853 17.9212C9.44447 18.996 9.65316 20.0609 10.0626 21.0547C10.472 22.0484 11.0741 22.9513 11.834 23.7113C12.594 24.4712 13.4969 25.0733 14.4906 25.4827C15.4844 25.8921 16.5493 26.1008 17.6241 26.0968C18.6988 26.1008 19.7638 25.8921 20.7575 25.4827C21.7512 25.0733 22.6541 24.4712 23.4141 23.7113C24.1741 22.9513 24.7761 22.0484 25.1856 21.0547C25.595 20.0609 25.8037 18.996 25.7996 17.9212C25.8037 16.8463 25.5951 15.7812 25.1857 14.7872C24.7764 13.7933 24.1744 12.8902 23.4144 12.13C22.6545 11.3697 21.7516 10.7674 20.7578 10.3576Z" fill="#211F20"/>
</svg>
