<svg width="33" height="36" viewBox="0 0 33 36" fill="none" xmlns="http://www.w3.org/2000/svg">
<path id="Vector" d="M23.2163 0L17.0247 0.00111865V24.4298C17.0267 25.4546 16.7096 26.4568 16.1136 27.3087C15.5177 28.1606 14.67 28.8237 13.6784 29.2135C12.6892 29.6079 11.5995 29.7117 10.5483 29.5119C9.49708 29.312 8.53193 28.8176 7.77584 28.0914C7.01581 27.3683 6.49819 26.4452 6.28892 25.4399C6.07964 24.4346 6.18819 23.3925 6.60072 22.4463C7.00882 21.499 7.70272 20.6892 8.59403 20.1202C9.48534 19.5512 10.5337 19.2487 11.6055 19.2512H13.6082V13.3331H11.6067C9.31081 13.3355 7.06704 13.9875 5.15825 15.2069C3.24945 16.4263 1.76109 18.1586 0.880773 20.1853C0.00428998 22.2134 -0.224455 24.4441 0.223369 26.5963C0.671193 28.7484 1.77554 30.7257 3.39722 32.2789C5.0224 33.8286 7.09111 34.8839 9.34269 35.3117C11.5943 35.7395 13.928 35.5208 16.0497 34.683C18.1697 33.8413 19.9815 32.4185 21.2569 30.5941C22.5322 28.7696 23.214 26.6252 23.2163 24.4309V10.8842C24.9017 11.844 26.8915 12.5489 29.3412 12.5489H32.4359V6.62962H29.3412C25.8592 6.62962 24.9158 5.27595 24.0895 3.5587C23.2631 1.84256 23.2163 0 23.2163 0Z" fill="#211F20"/>
</svg>
