<svg width="38" height="32" viewBox="0 0 38 32" fill="none" xmlns="http://www.w3.org/2000/svg">
<path id="Vector" d="M26.3904 0.633789C25.1393 0.635068 23.9042 0.90201 22.7754 1.41513C21.6465 1.92826 20.6523 2.67462 19.8654 3.59975C19.0785 4.52488 18.5187 5.60543 18.2269 6.76256C17.935 7.91969 17.9185 9.12419 18.1785 10.2882C16.9663 10.2715 13.7313 10.0485 9.62469 8.24545C4.43082 5.96528 3.28169 3.78053 3.28169 3.78053C3.28169 3.78053 1.66006 1.63573 0.884248 6.15502C0.463092 8.60939 2.12672 10.9484 3.30269 12.2554C2.01122 11.9148 1.46523 11.5375 1.46523 11.5375C1.46523 11.5375 -1.00454 10.3303 0.468925 14.6898C1.41857 17.4971 4.87881 18.884 6.33711 19.3556C5.2218 19.3844 4.68165 19.2224 4.68165 19.2224C4.68165 19.2224 2.04972 18.8341 4.77848 22.3781C6.38844 24.4696 9.55936 24.8679 11.216 24.9279C6.58677 28.1567 5.51346 27.4166 3.60018 27.2624C2.37521 27.1625 1.36024 28.4274 3.76701 29.7489C9.02504 32.636 21.5092 32.7537 28.5009 24.3475C34.4181 17.2319 34.957 10.813 34.9255 8.79136C35.706 8.38082 36.4037 7.87041 36.7257 7.24683C37.673 5.4116 36.3628 5.62908 36.3628 5.62908L34.8777 5.71119C35.7469 5.08317 36.56 4.31313 36.7805 3.48872C37.3102 1.50702 36.0747 1.97748 36.0747 1.97748L32.3158 2.94946C30.7416 1.46574 28.6149 0.633464 26.3986 0.633789H26.3904Z" fill="#211F20"/>
</svg>
