<svg width="109" height="84" viewBox="0 0 109 84" fill="none" xmlns="http://www.w3.org/2000/svg">
<path id="Vector" d="M38.9829 33.1517L32.1464 31.7468L31.8944 30.0504C32.2614 29.7196 32.6068 29.3654 32.9287 28.9899C34.746 26.8811 35.7643 24.192 35.8032 21.399C35.8032 20.2483 35.7105 17.9677 35.4617 16.7453C34.4499 11.7771 31.2684 9.36203 25.7351 9.36203C21.5658 9.36203 17.1458 10.2256 15.9765 16.6292C15.7487 17.8771 15.6659 20.1653 15.6659 21.4001C15.7045 24.193 16.7224 26.882 18.5393 28.991C18.8477 29.3506 19.1776 29.6908 19.5273 30.0097L19.3112 31.7486L12.4831 33.1517C11.2065 33.4176 10.0596 34.1182 9.23502 35.1358C8.41043 36.1533 7.9584 37.4259 7.95485 38.7397V47.1195C7.95588 48.0534 8.32442 48.9487 8.97961 49.6091C9.63481 50.2694 10.5231 50.6408 11.4497 50.6419H40.0161C40.9427 50.6408 41.831 50.2694 42.4862 49.6091C43.1414 48.9487 43.51 48.0534 43.511 47.1195V38.7397C43.5075 37.4259 43.0555 36.1534 42.2309 35.1358C41.4064 34.1183 40.2595 33.4177 38.9829 33.1517ZM18.6898 21.399C18.6898 20.0569 18.7894 18.0627 18.9504 17.1813C19.6869 13.1495 21.8122 12.4119 25.7329 12.4119C29.8213 12.4119 31.7809 13.8451 32.4962 17.3584C32.6691 18.208 32.7771 20.1168 32.7771 21.399C32.7771 25.1417 29.7007 29.4919 25.734 29.4919C21.7673 29.4919 18.6898 25.1417 18.6898 21.399ZM25.7329 32.5417C26.8904 32.54 28.0359 32.3054 29.1022 31.8516L29.1861 32.4156C29.1383 34.8897 27.4282 35.9986 25.7329 35.9986C24.034 35.9986 22.3197 34.8843 22.2795 32.3984L22.3483 31.8455C23.419 32.3033 24.5699 32.5401 25.7329 32.5417ZM40.4849 47.1195C40.4848 47.2448 40.4354 47.3649 40.3475 47.4535C40.2596 47.5421 40.1404 47.5919 40.0161 47.592H11.4497C11.3254 47.5919 11.2062 47.5421 11.1183 47.4535C11.0304 47.3649 10.981 47.2448 10.9809 47.1195V38.7397C10.9825 38.1285 11.1928 37.5365 11.5763 37.0631C11.9599 36.5897 12.4934 36.2637 13.0873 36.1399L19.6473 34.7919C19.9783 35.7643 20.5426 36.6392 21.29 37.3388C22.5037 38.4536 24.0909 39.0643 25.7329 39.0482C28.2835 39.0482 30.8575 37.5945 31.8183 34.7917L38.3784 36.1399C38.9722 36.2636 39.5058 36.5896 39.8894 37.0629C40.273 37.5363 40.4833 38.1283 40.4849 38.7395V47.1195ZM49.1645 17.1172C49.1645 16.7128 49.3239 16.3249 49.6077 16.0389C49.8914 15.7529 50.2763 15.5923 50.6776 15.5923H81.5788C81.98 15.5923 82.3649 15.7529 82.6486 16.0389C82.9324 16.3249 83.0918 16.7128 83.0918 17.1172C83.0918 17.5217 82.9324 17.9095 82.6486 18.1955C82.3649 18.4815 81.98 18.6421 81.5788 18.6421H50.6776C50.2763 18.6421 49.8914 18.4815 49.6077 18.1955C49.3239 17.9095 49.1645 17.5217 49.1645 17.1172ZM49.1645 26.511C49.1645 26.1066 49.3239 25.7187 49.6077 25.4328C49.8914 25.1468 50.2763 24.9861 50.6776 24.9861H81.5788C81.98 24.9861 82.3649 25.1468 82.6486 25.4328C82.9324 25.7187 83.0918 26.1066 83.0918 26.511C83.0918 26.9155 82.9324 27.3034 82.6486 27.5893C82.3649 27.8753 81.98 28.036 81.5788 28.036H50.6776C50.2763 28.036 49.8914 27.8753 49.6077 27.5893C49.3239 27.3034 49.1645 26.9155 49.1645 26.511ZM49.1645 35.9049C49.1645 35.5004 49.3239 35.1126 49.6077 34.8266C49.8914 34.5406 50.2763 34.3799 50.6776 34.3799H81.5788C81.98 34.3799 82.3649 34.5406 82.6486 34.8266C82.9324 35.1126 83.0918 35.5004 83.0918 35.9049C83.0918 36.3093 82.9324 36.6972 82.6486 36.9832C82.3649 37.2692 81.98 37.4298 81.5788 37.4298H50.6776C50.2763 37.4298 49.8914 37.2692 49.6077 36.9832C49.3239 36.6972 49.1645 36.3093 49.1645 35.9049ZM92.5603 40.0298V6.30344C92.5584 4.63221 91.8989 3.02998 90.7263 1.84826C89.5538 0.66654 87.9641 0.00184507 86.3059 0H6.25442C4.59625 0.00184507 3.00651 0.66654 1.83398 1.84826C0.661447 3.02998 0.00188797 4.63221 0 6.30344V54.657C0.00188786 56.3283 0.66144 57.9305 1.83396 59.1123C3.00649 60.2941 4.59623 60.9588 6.25442 60.9607H64.6259C64.6194 61.1844 64.6151 61.4084 64.6151 61.6336C64.6153 65.8079 65.7744 69.8989 67.9614 73.4438C70.1485 76.9887 73.2761 79.846 76.9905 81.6926C80.705 83.5391 84.858 84.3012 88.9798 83.8926C93.1017 83.484 97.0278 81.921 100.314 79.3805C103.6 76.84 106.116 73.4233 107.576 69.5169C109.036 65.6105 109.382 61.3703 108.575 57.2759C107.768 53.1816 105.841 49.3964 103.01 46.3487C100.18 43.301 96.5604 41.1123 92.5603 40.0303V40.0298ZM6.25442 57.9104C5.39858 57.9094 4.57806 57.5663 3.97285 56.9564C3.36763 56.3465 3.02714 55.5196 3.02605 54.657V6.30344C3.02708 5.44082 3.36755 4.61383 3.97277 4.00389C4.57799 3.39395 5.39854 3.05086 6.25442 3.04988H86.3059C87.1618 3.0508 87.9824 3.39387 88.5876 4.00383C89.1928 4.61378 89.5333 5.4408 89.5343 6.30344V39.4351C88.6296 39.3228 87.719 39.2664 86.8076 39.2663C81.9905 39.2612 77.3039 40.8441 73.4627 43.7738H50.6776C50.2763 43.7738 49.8914 43.9344 49.6077 44.2204C49.3239 44.5064 49.1645 44.8943 49.1645 45.2987C49.1645 45.7032 49.3239 46.091 49.6077 46.377C49.8914 46.663 50.2763 46.8237 50.6776 46.8237H70.1921C67.4403 49.9488 65.6151 53.7904 64.9244 57.9104H6.25442ZM86.8076 80.9513C83.0169 80.9513 79.3113 79.8184 76.1594 77.6958C73.0076 75.5732 70.551 72.5563 69.1003 69.0266C67.6497 65.4969 67.2701 61.6129 68.0097 57.8657C68.7492 54.1186 70.5746 50.6766 73.255 47.9751C75.9355 45.2735 79.3506 43.4338 83.0684 42.6884C86.7863 41.9431 90.64 42.3256 94.1421 43.7877C97.6443 45.2497 100.638 47.7256 102.744 50.9023C104.85 54.079 105.974 57.8137 105.974 61.6343C105.968 66.7557 103.947 71.6657 100.354 75.2871C96.7606 78.9085 91.889 80.9455 86.8076 80.9513ZM101.998 56.3998C101.941 55.1351 101.412 53.939 100.515 53.0519C98.7722 51.2954 95.769 50.7665 93.3998 53.1543L83.7597 62.8704L80.431 59.5155C78.9934 58.0668 77.5226 57.7618 76.5417 57.7612H76.5382C75.2506 57.7687 74.0178 58.2878 73.1076 59.2059C72.1974 60.1239 71.6832 61.3667 71.6766 62.6645C71.6766 63.6531 71.9792 65.1358 73.4171 66.5844L79.0527 72.2646C80.3021 73.521 81.995 74.2265 83.76 74.2265C85.525 74.2265 87.2179 73.521 88.4674 72.2646L100.414 60.2244C101.791 58.8343 102.036 57.3771 101.998 56.3998ZM98.2739 58.0668L86.3277 70.1071C85.6462 70.7923 84.7229 71.1772 83.7602 71.1772C82.7976 71.1772 81.8742 70.7923 81.1927 70.1071L75.5571 64.4269C74.9986 63.864 74.7031 63.2535 74.7029 62.6623C74.7099 62.1737 74.9055 61.7071 75.2482 61.3614C75.5909 61.0157 76.0537 60.8181 76.5384 60.8106H76.5397C77.1272 60.8106 77.7329 61.1086 78.2905 61.6715L82.6898 66.1052C82.8303 66.2468 82.997 66.3591 83.1806 66.4358C83.3642 66.5124 83.561 66.5519 83.7597 66.5519C83.9584 66.5519 84.1551 66.5124 84.3387 66.4358C84.5223 66.3591 84.6891 66.2468 84.8296 66.1052L95.5397 55.3106C96.6236 54.2181 97.7444 54.5723 98.3755 55.2082C98.7295 55.5543 98.9429 56.0208 98.9745 56.5168C98.9948 57.0553 98.7594 57.5762 98.2739 58.0659V58.0668Z" fill="#F0E8DD"/>
</svg>
