<svg width="47" height="47" viewBox="0 0 47 47" fill="none" xmlns="http://www.w3.org/2000/svg">
<path id="Vector" d="M23.5 0C10.5412 0 0 10.5412 0 23.5C0 36.4588 10.5412 47 23.5 47C36.4588 47 47 36.4588 47 23.5C47 10.5412 36.4588 0 23.5 0ZM12.22 27.26C11.7193 27.2713 11.2213 27.1825 10.7554 26.9987C10.2895 26.815 9.86501 26.54 9.50683 26.1899C9.14866 25.8398 8.86403 25.4217 8.66967 24.9601C8.47531 24.4985 8.37512 24.0027 8.37499 23.5019C8.37487 23.0011 8.47481 22.5052 8.66894 22.0435C8.86307 21.5819 9.14749 21.1636 9.50549 20.8133C9.86349 20.4631 10.2879 20.1879 10.7537 20.0039C11.2195 19.8199 11.7174 19.7308 12.2181 19.7419C13.2005 19.7636 14.1354 20.1691 14.8226 20.8715C15.5098 21.5739 15.8947 22.5174 15.895 23.5C15.8952 24.4827 15.5108 25.4264 14.8239 26.1291C14.1371 26.8319 13.2024 27.2378 12.22 27.26ZM23.5 27.26C22.9993 27.2713 22.5013 27.1825 22.0354 26.9987C21.5695 26.815 21.145 26.54 20.7868 26.1899C20.4287 25.8398 20.144 25.4217 19.9497 24.9601C19.7553 24.4985 19.6551 24.0027 19.655 23.5019C19.6549 23.0011 19.7548 22.5052 19.9489 22.0435C20.1431 21.5819 20.4275 21.1636 20.7855 20.8133C21.1435 20.4631 21.5679 20.1879 22.0337 20.0039C22.4995 19.8199 22.9974 19.7308 23.4981 19.7419C24.4805 19.7636 25.4154 20.1691 26.1026 20.8715C26.7898 21.5739 27.1747 22.5174 27.175 23.5C27.1752 24.4827 26.7908 25.4264 26.1039 26.1291C25.4171 26.8319 24.4824 27.2378 23.5 27.26ZM34.78 27.26C34.2793 27.2713 33.7813 27.1825 33.3154 26.9987C32.8495 26.815 32.425 26.54 32.0668 26.1899C31.7087 25.8398 31.424 25.4217 31.2297 24.9601C31.0353 24.4985 30.9351 24.0027 30.935 23.5019C30.9349 23.0011 31.0348 22.5052 31.2289 22.0435C31.4231 21.5819 31.7075 21.1636 32.0655 20.8133C32.4235 20.4631 32.8479 20.1879 33.3137 20.0039C33.7795 19.8199 34.2774 19.7308 34.7781 19.7419C35.7605 19.7636 36.6954 20.1691 37.3826 20.8715C38.0698 21.5739 38.4548 22.5174 38.455 23.5C38.4552 24.4827 38.0708 25.4264 37.3839 26.1291C36.6971 26.8319 35.7624 27.2378 34.78 27.26Z" fill="#F0E8DD"/>
</svg>
