<svg width="27" height="27" viewBox="0 0 27 27" fill="none" xmlns="http://www.w3.org/2000/svg">
<path id="Vector" d="M8.1 21.6C6.60825 21.6 5.4135 22.8083 5.4135 24.3C5.4135 25.7917 6.60825 27 8.1 27C9.59175 27 10.8 25.7917 10.8 24.3C10.8 22.8083 9.59175 21.6 8.1 21.6ZM0 0V2.7H2.7L7.55325 12.9398L5.73075 16.2472C5.5215 16.6388 5.4 17.0775 5.4 17.55C5.4 19.0417 6.60825 20.25 8.1 20.25H24.3V17.55H8.67375C8.48475 17.55 8.33625 17.4015 8.33625 17.2125C8.33625 17.1518 8.34975 17.0977 8.37675 17.0505L9.585 14.85H19.6425C20.655 14.85 21.5392 14.2898 22.005 13.4595L26.8313 4.698C26.9393 4.509 27 4.28625 27 4.05C27 3.69196 26.8578 3.34858 26.6046 3.09541C26.3514 2.84223 26.008 2.7 25.65 2.7H5.69025L4.40775 0H0ZM21.6 21.6C20.1082 21.6 18.9135 22.8083 18.9135 24.3C18.9135 25.7917 20.1082 27 21.6 27C23.0918 27 24.3 25.7917 24.3 24.3C24.3 22.8083 23.0918 21.6 21.6 21.6Z" fill="#BA4B47"/>
</svg>
